<?xml version="1.0" encoding="utf-8"?>
<!-- Generator: Adobe Illustrator 26.0.1, SVG Export Plug-In . SVG Version: 6.00 Build 0)  -->
<svg version="1.1" xmlns="http://www.w3.org/2000/svg" xmlns:xlink="http://www.w3.org/1999/xlink" x="0px" y="0px" width="280.3px"
	 height="131.8px" viewBox="0 0 280.3 131.8" style="enable-background:new 0 0 280.3 131.8;" xml:space="preserve">
<style type="text/css">
	.st0{fill:#F6F6F3;}
	.st1{fill:#00455C;}
</style>
<g id="Laag_1">
</g>
<g id="Layer_1">
	<g>
		<polyline class="st0" points="76.8,20.3 108.2,112.5 25.6,112.5 25.6,20.3 76.8,20.3 		"/>
		<g>
			<polygon class="st1" points="262.3,112.5 108.1,112.5 76.9,20.3 262.3,20.3 			"/>
			<g>
				<path class="st0" d="M116.5,65.9h-3.6l-6.1-17.6h3.3l4.6,13.4l4.6-13.4h3.3L116.5,65.9z"/>
				<path class="st0" d="M127.7,46.5v19.1h-3.1V46.8l2.7-0.3H127.7z"/>
				<path class="st0" d="M141.5,65.9c-1,0-2.1-0.3-3.1-1.4c-0.5,0.4-1,0.8-1.6,1c-0.6,0.3-1.2,0.4-2.1,0.4c-0.9,0-2.1-0.2-3-0.8
					c-0.9-0.6-1.6-1.7-1.6-3.5c0-1.2,0.3-2.2,1-2.8c0.7-0.6,1.9-1,3.8-1c0.7,0,1.6,0,2.8,0.1v-0.7c0-0.9-0.3-1.6-0.8-2
					c-0.5-0.4-1.1-0.6-1.9-0.6c-1.2,0-2.6,0.4-3.7,0.9l-0.7-2.7c1.4-0.7,3.3-1.2,5-1.2c1.4,0,2.6,0.3,3.6,1c0.9,0.7,1.5,1.8,1.5,3.5
					v5.1c0,0.6,0.2,1.1,0.6,1.4c0.4,0.3,0.9,0.5,1.5,0.6L141.5,65.9z M137.8,60.1c-1.4,0-2.6,0-3.3,0.2c-0.8,0.2-1.2,0.6-1.2,1.4
					c0,1.1,0.8,1.7,1.9,1.7c0.4,0,1-0.1,1.6-0.4c0.6-0.3,1-1,1-2V60.1z"/>
				<path class="st0" d="M155.1,65.9c-1,0-2.1-0.3-3.1-1.4c-0.5,0.4-1,0.8-1.6,1c-0.6,0.3-1.2,0.4-2.1,0.4c-0.9,0-2.1-0.2-3-0.8
					c-0.9-0.6-1.6-1.7-1.6-3.5c0-1.2,0.3-2.2,1-2.8c0.7-0.6,1.9-1,3.8-1c0.7,0,1.6,0,2.8,0.1v-0.7c0-0.9-0.3-1.6-0.8-2
					c-0.5-0.4-1.1-0.6-1.9-0.6c-1.2,0-2.6,0.4-3.7,0.9l-0.7-2.7c1.4-0.7,3.3-1.2,5-1.2c1.4,0,2.6,0.3,3.6,1c0.9,0.7,1.5,1.8,1.5,3.5
					v5.1c0,0.6,0.2,1.1,0.6,1.4c0.4,0.3,0.9,0.5,1.5,0.6L155.1,65.9z M151.4,60.1c-1.4,0-2.6,0-3.3,0.2c-0.8,0.2-1.2,0.6-1.2,1.4
					c0,1.1,0.8,1.7,1.9,1.7c0.4,0,1-0.1,1.6-0.4c0.6-0.3,1-1,1-2V60.1z"/>
				<path class="st0" d="M161,52l0.3,1.1c1.3-0.8,2.8-1.3,4.4-1.3c1.3,0,2.6,0.4,3.5,1.1c0.9,0.8,1.5,2,1.5,3.7v9.1h-3.1v-8.2
					c0-1-0.4-1.7-0.9-2.2c-0.6-0.4-1.3-0.6-2.2-0.6c-1.1,0-2.1,0.3-3,0.8v10.1h-3.1V52H161z"/>
				<path class="st0" d="M183,65.6l-0.6-1c-1.1,0.8-2.2,1.3-3.7,1.3c-2,0-3.4-0.8-4.4-2c-1-1.2-1.4-2.8-1.4-4.5
					c0-2.6,0.8-4.5,2.1-5.8c1.3-1.3,3.1-1.9,5.2-1.9c0.6,0,1.3,0,2,0.1v-5l2.6-0.3h0.5v19.1H183z M182.3,54.9
					c-0.8-0.2-1.6-0.3-2.2-0.3c-1.2,0-2.2,0.3-2.8,1.1c-0.7,0.7-1.1,1.8-1.1,3.2c0,1,0.3,2.1,0.8,2.8c0.6,0.8,1.4,1.3,2.5,1.3
					c0.9,0,2-0.3,2.8-0.8V54.9z"/>
				<path class="st0" d="M198.8,62.1v3c-1.2,0.6-2.7,0.8-3.9,0.8c-1.9,0-3.7-0.6-4.9-1.8c-1.3-1.2-2.1-3-2.1-5.3
					c0-2.3,0.8-4.1,1.9-5.3c1.1-1.2,2.7-1.8,4.2-1.8c0.4,0,1.2,0.1,2,0.3c0.8,0.3,1.7,0.8,2.3,1.7c0.7,0.9,1.1,2.3,1.1,4.2v2.1h-8.3
					c0.2,1.1,0.8,1.9,1.6,2.3c0.7,0.5,1.6,0.7,2.5,0.7c1.2,0,2.4-0.3,3.4-0.9L198.8,62.1z M196.7,57.5c-0.1-1-0.4-1.7-0.9-2.2
					c-0.5-0.5-1.1-0.7-1.7-0.7c-0.6,0-1.3,0.2-1.8,0.7c-0.5,0.5-0.9,1.2-1.1,2.2H196.7z"/>
				<path class="st0" d="M210.1,55.4c-0.8-0.5-1.5-0.7-2.3-0.7c-1,0-1.9,0.4-2.8,1v10h-3.1V52h2.6l0.3,1.1c0.9-0.8,2.1-1.4,3.5-1.4
					c0.4,0,0.9,0,1.4,0.1c0.5,0.1,1,0.2,1.3,0.4L210.1,55.4z"/>
				<path class="st0" d="M222.8,62.1v3c-1.2,0.6-2.7,0.8-3.9,0.8c-1.9,0-3.7-0.6-4.9-1.8c-1.3-1.2-2.1-3-2.1-5.3
					c0-2.3,0.8-4.1,1.9-5.3c1.1-1.2,2.7-1.8,4.2-1.8c0.4,0,1.2,0.1,2,0.3c0.8,0.3,1.7,0.8,2.3,1.7c0.7,0.9,1.1,2.3,1.1,4.2v2.1h-8.3
					c0.2,1.1,0.8,1.9,1.6,2.3c0.7,0.5,1.6,0.7,2.5,0.7c1.2,0,2.4-0.3,3.4-0.9L222.8,62.1z M220.7,57.5c-0.1-1-0.4-1.7-0.9-2.2
					c-0.5-0.5-1.1-0.7-1.7-0.7c-0.6,0-1.3,0.2-1.8,0.7c-0.5,0.5-0.9,1.2-1.1,2.2H220.7z"/>
				<path class="st0" d="M228.6,52l0.3,1.1c1.3-0.8,2.8-1.3,4.4-1.3c1.3,0,2.6,0.4,3.5,1.1c0.9,0.8,1.5,2,1.5,3.7v9.1h-3.1v-8.2
					c0-1-0.4-1.7-0.9-2.2c-0.6-0.4-1.3-0.6-2.2-0.6c-1.1,0-2.1,0.3-3,0.8v10.1H226V52H228.6z"/>
				<path class="st0" d="M111.5,74c0-0.4,0.3-0.8,0.8-0.8c0.4,0,0.8,0.3,0.8,0.8c0,0.4-0.4,0.8-0.8,0.8
					C111.9,74.7,111.5,74.4,111.5,74z M112.9,76v7.6h-1.1V76H112.9z"/>
				<path class="st0" d="M114.9,82.3c0.5,0.2,1.2,0.4,1.8,0.4c0.8,0,1.9-0.4,1.9-1.2c0-0.4-0.2-0.7-0.6-0.9
					c-0.5-0.3-1.2-0.5-1.9-0.9c-0.8-0.4-1.2-1-1.2-1.8c0-1.5,1.2-2,2.6-2c0.6,0,1.1,0.1,1.5,0.2v1l0,0c-0.4-0.1-1.1-0.2-1.7-0.2
					c-0.7,0-1.3,0.2-1.3,0.9c0,0.4,0.2,0.7,0.6,0.9c0.5,0.3,1.4,0.6,2.1,1c0.8,0.4,1,0.9,1,1.7c0,0.8-0.4,1.4-1,1.8
					c-0.6,0.4-1.4,0.6-2.1,0.6c-0.6,0-1.2-0.1-1.7-0.3L114.9,82.3L114.9,82.3z"/>
				<path class="st0" d="M125.3,79.9c0-1.1,0.4-2.1,1-2.8c0.6-0.7,1.5-1.2,2.5-1.2s1.9,0.4,2.5,1.2c0.6,0.7,0.9,1.7,0.9,2.8
					c0,1.1-0.4,2.1-1,2.8c-0.6,0.7-1.5,1.2-2.5,1.2c-1,0-1.9-0.4-2.5-1.2C125.6,81.9,125.3,80.9,125.3,79.9z M126.4,79.8
					c0,0.8,0.2,1.5,0.6,2.1c0.4,0.5,1,0.9,1.8,0.9c0.8,0,1.3-0.3,1.7-0.8c0.4-0.5,0.6-1.2,0.6-2c0-0.8-0.2-1.5-0.6-2.1
					c-0.4-0.5-1-0.9-1.8-0.9c-0.8,0-1.3,0.3-1.7,0.8C126.6,78.3,126.4,79,126.4,79.8z"/>
				<path class="st0" d="M134.8,76l0.2,0.7c0.3-0.2,0.7-0.4,1.1-0.6c0.4-0.2,0.8-0.3,1.2-0.3c0.7,0,1.4,0.2,1.9,0.6
					c0.5,0.5,0.8,1.2,0.8,2.2v4.9h-1.1v-4.8c0-0.7-0.2-1.2-0.5-1.5c-0.3-0.3-0.7-0.4-1.2-0.4c-0.4,0-0.7,0.1-1.1,0.2
					c-0.3,0.1-0.7,0.3-1,0.5v6H134V76H134.8z"/>
				<path class="st0" d="M147.3,83.6l-0.2-0.7c-0.6,0.5-1.3,0.8-2.1,0.8c-1,0-1.8-0.5-2.4-1.2c-0.6-0.7-0.9-1.7-0.9-2.9
					c0-1.1,0.3-2,0.9-2.7c0.6-0.7,1.6-1.1,2.9-1.1c0.5,0,1,0.1,1.4,0.2v-2.9l1.1-0.1h0.1v10.6H147.3z M146.9,77.2
					c-0.5-0.2-1-0.3-1.5-0.3c-0.8,0-1.4,0.2-1.9,0.7c-0.5,0.5-0.7,1.2-0.7,2.2c0,0.8,0.2,1.5,0.5,2c0.4,0.5,0.9,0.9,1.8,0.9
					c0.8,0,1.4-0.3,1.8-0.8V77.2z"/>
				<path class="st0" d="M155.6,80.1h-4.7c0.1,1.6,1.1,2.6,2.5,2.6c0.7,0,1.4-0.2,2.1-0.5l0,0v1c-0.8,0.4-1.5,0.5-2.2,0.5
					c-2.2,0-3.5-1.6-3.5-4c0-2.2,1-3.9,3.3-3.9c1.9,0,2.6,1.5,2.6,3.2V80.1z M154.5,79.1c0-1.2-0.3-2.2-1.5-2.2
					c-1.2,0-1.9,0.9-2.1,2.2H154.5z"/>
				<path class="st0" d="M158.1,76l0.3,0.9c0.6-0.7,1.2-1,1.9-1c0.2,0,0.4,0,0.6,0.1c0.2,0,0.4,0.1,0.6,0.2l-0.4,1
					c-0.3-0.1-0.7-0.2-1-0.2c-0.7,0-1.2,0.4-1.6,1v5.7h-1.1V76H158.1z"/>
				<path class="st0" d="M170.5,83.6h-1.4l-1.7-5.8l-1.7,5.8h-1.4l-2.4-7.6h1.1l2,6.3l1.9-6.3h1l1.9,6.3l2-6.3h1.1L170.5,83.6z"/>
				<path class="st0" d="M174.3,74c0-0.4,0.3-0.8,0.8-0.8c0.4,0,0.8,0.3,0.8,0.8c0,0.4-0.4,0.8-0.8,0.8
					C174.7,74.7,174.3,74.4,174.3,74z M175.7,76v7.6h-1.1V76H175.7z"/>
				<path class="st0" d="M179.6,76v8.1c0,1.1-0.3,1.8-0.7,2.3c-0.4,0.5-1,0.7-1.7,0.7c-0.6,0-1.2-0.2-1.9-0.5l0.3-1
					c0.5,0.3,1,0.5,1.4,0.5c0.4,0,0.7-0.1,1-0.4c0.2-0.3,0.4-0.8,0.4-1.5V76H179.6z M178.3,74c0-0.2,0.1-0.4,0.2-0.6
					c0.1-0.1,0.3-0.2,0.5-0.2c0.2,0,0.4,0.1,0.6,0.2c0.1,0.1,0.2,0.3,0.2,0.6c0,0.2-0.1,0.4-0.2,0.5c-0.1,0.1-0.3,0.2-0.6,0.2
					c-0.2,0-0.4-0.1-0.5-0.2C178.4,74.4,178.3,74.2,178.3,74z"/>
				<path class="st0" d="M181.6,82.3c0.5,0.2,1.2,0.4,1.8,0.4c0.8,0,1.9-0.4,1.9-1.2c0-0.4-0.2-0.7-0.6-0.9
					c-0.5-0.3-1.2-0.5-1.9-0.9c-0.8-0.4-1.2-1-1.2-1.8c0-1.5,1.2-2,2.6-2c0.6,0,1.1,0.1,1.5,0.2v1l0,0c-0.4-0.1-1.1-0.2-1.7-0.2
					c-0.7,0-1.3,0.2-1.3,0.9c0,0.4,0.2,0.7,0.6,0.9c0.5,0.3,1.4,0.6,2.1,1c0.8,0.4,1,0.9,1,1.7c0,0.8-0.4,1.4-1,1.8
					c-0.6,0.4-1.4,0.6-2.1,0.6c-0.6,0-1.2-0.1-1.7-0.3L181.6,82.3L181.6,82.3z"/>
				<path class="st0" d="M198.6,78.3l1,0.4c-0.2,1.2-0.5,2.2-1,2.9l1.4,1.4l-0.8,0.8l-1.3-1.2c-0.8,0.8-1.7,1.2-2.9,1.2
					c-0.9,0-1.7-0.3-2.2-0.7s-0.9-1.2-0.9-2.1c0-1.1,0.5-1.9,1.7-2.6c-0.5-0.5-0.9-1.2-0.9-2.1c0-0.7,0.2-1.3,0.6-1.7
					c0.4-0.4,1-0.7,1.7-0.7c0.6,0,1.2,0.2,1.6,0.5c0.4,0.4,0.7,0.9,0.7,1.6c0,0.7-0.3,1.2-0.7,1.6c-0.4,0.4-0.9,0.7-1.4,0.9l2.4,2.4
					C198.2,80,198.4,79.1,198.6,78.3L198.6,78.3z M194.4,79c-0.3,0.2-0.7,0.5-0.9,0.8c-0.2,0.3-0.4,0.7-0.4,1.2c0,0.5,0.2,1,0.5,1.3
					c0.3,0.3,0.8,0.5,1.4,0.5c0.9,0,1.6-0.4,2.1-1L194.4,79z M193.9,76.1c0,0.4,0.1,0.7,0.2,1c0.1,0.3,0.3,0.5,0.5,0.7
					c0,0,0,0,0.1,0c0,0,0,0,0.1,0c0.3-0.1,0.7-0.3,1-0.6c0.3-0.3,0.5-0.6,0.5-1.2c0-0.4-0.1-0.7-0.3-0.8c-0.2-0.2-0.5-0.2-0.8-0.2
					C194.3,74.9,193.9,75.4,193.9,76.1z"/>
				<path class="st0" d="M209.3,83.6h-1.5l-2.6-7.6h1.2l2.2,6.4l2.2-6.4h1.2L209.3,83.6z"/>
				<path class="st0" d="M212.7,79.9c0-1.1,0.4-2.1,1-2.8c0.6-0.7,1.5-1.2,2.5-1.2c1,0,1.9,0.4,2.5,1.2c0.6,0.7,0.9,1.7,0.9,2.8
					c0,1.1-0.4,2.1-1,2.8c-0.6,0.7-1.5,1.2-2.5,1.2c-1,0-1.9-0.4-2.5-1.2C213,81.9,212.7,80.9,212.7,79.9z M213.8,79.8
					c0,0.8,0.2,1.5,0.6,2.1c0.4,0.5,1,0.9,1.8,0.9c0.8,0,1.3-0.3,1.7-0.8c0.4-0.5,0.6-1.2,0.6-2c0-0.8-0.2-1.5-0.6-2.1
					c-0.4-0.5-1-0.9-1.8-0.9c-0.8,0-1.3,0.3-1.7,0.8C214,78.3,213.8,79,213.8,79.8z"/>
				<path class="st0" d="M221.6,76l0.3,0.9c0.6-0.7,1.2-1,1.9-1c0.2,0,0.4,0,0.6,0.1c0.2,0,0.4,0.1,0.6,0.2l-0.4,1
					c-0.3-0.1-0.7-0.2-1-0.2c-0.7,0-1.2,0.4-1.6,1v5.7h-1.1V76H221.6z"/>
				<path class="st0" d="M230.7,83.6v-4.8c0-0.7-0.1-1.2-0.4-1.5c-0.2-0.3-0.6-0.4-1-0.4c-0.6,0-1.2,0.3-1.8,0.7v6h-1.1V76h0.7
					l0.3,0.7c0.5-0.3,0.8-0.5,1.2-0.6c0.3-0.1,0.7-0.2,1-0.2c0.6,0,1.3,0.2,1.7,0.8c0.3-0.2,0.7-0.4,1.1-0.6
					c0.4-0.2,0.8-0.3,1.1-0.3c0.7,0,1.4,0.2,1.9,0.6c0.5,0.5,0.8,1.2,0.8,2.2v4.9H235v-4.8c0-0.7-0.2-1.2-0.5-1.5
					c-0.3-0.3-0.7-0.4-1.2-0.4c-0.6,0-1.2,0.3-1.7,0.6c0.1,0.4,0.2,0.8,0.2,1.3v4.9H230.7z"/>
				<path class="st0" d="M238.4,74c0-0.4,0.3-0.8,0.8-0.8c0.4,0,0.8,0.3,0.8,0.8c0,0.4-0.4,0.8-0.8,0.8
					C238.8,74.7,238.4,74.4,238.4,74z M239.8,76v7.6h-1.1V76H239.8z"/>
				<path class="st0" d="M243.1,76l0.2,0.7c0.3-0.2,0.7-0.4,1.1-0.6c0.4-0.2,0.8-0.3,1.2-0.3c0.7,0,1.4,0.2,1.9,0.6
					c0.5,0.5,0.8,1.2,0.8,2.2v4.9h-1.1v-4.8c0-0.7-0.2-1.2-0.5-1.5c-0.3-0.3-0.7-0.4-1.2-0.4c-0.4,0-0.7,0.1-1.1,0.2
					c-0.3,0.1-0.7,0.3-1,0.5v6h-1.1V76H243.1z"/>
				<path class="st0" d="M253.5,82c1,0,1.8,0.2,2.3,0.6c0.5,0.4,0.7,0.9,0.7,1.5c0,0.8-0.5,1.6-1.2,2.1c-0.7,0.5-1.7,0.9-2.7,0.9
					c-0.9,0-1.6-0.3-2.1-0.7c-0.5-0.4-0.8-1-0.8-1.7c0-0.6,0.3-1.3,0.9-1.9c-0.2-0.1-0.4-0.3-0.5-0.5c-0.1-0.2-0.2-0.5-0.2-0.7
					c0-0.4,0.2-0.9,0.5-1.3c-0.2-0.2-0.4-0.5-0.5-0.8c-0.1-0.3-0.2-0.7-0.2-1c0-0.7,0.3-1.4,0.8-1.8c0.5-0.5,1.2-0.7,2-0.7
					c0.6,0,1.1,0.1,1.5,0.4c0.3-0.2,0.7-0.4,1-0.6c0.3-0.1,0.7-0.2,0.9-0.2l0.3,1c-0.4,0.1-0.9,0.2-1.4,0.5c0.3,0.4,0.4,0.9,0.4,1.4
					c0,0.7-0.3,1.4-0.8,1.9c-0.5,0.5-1.2,0.8-2,0.8c-0.5,0-1-0.1-1.4-0.3c-0.2,0.2-0.3,0.4-0.3,0.6c0,0.4,0.3,0.7,0.9,0.7H253.5z
					 M251.7,83c-0.4,0.5-0.7,1.1-0.7,1.6c0,0.4,0.1,0.8,0.4,1.1c0.3,0.3,0.8,0.4,1.4,0.4c0.8,0,1.4-0.2,1.9-0.6
					c0.5-0.4,0.7-0.8,0.7-1.3c0-0.6-0.3-0.9-0.9-1c-0.5-0.2-1.3-0.2-2.1-0.2H251.7z M252.9,76.9c-0.6,0-1,0.2-1.3,0.5
					c-0.3,0.3-0.4,0.7-0.4,1.1c0,0.4,0.2,0.8,0.4,1.1c0.3,0.3,0.7,0.5,1.3,0.5c0.6,0,1-0.2,1.3-0.5c0.3-0.3,0.4-0.7,0.4-1.1
					c0-0.4-0.1-0.8-0.4-1.1C253.9,77.1,253.4,76.9,252.9,76.9z"/>
			</g>
			<g>
				<path class="st1" d="M79.1,66.8c-2-1.6-3,0-4.3-0.1c-1.1-0.1-2.1-1.8-2.9-1.4c-1.6,0.8,0.6,3.7,1.6,4.3c0.9,0.5,2,1,2.2,1.1
					c1.3,0.6,1.8,1.5,2,2.9c0,0.3,0,1.1-0.1,1.4c-0.6,2.5-5,4.8-7.5,3c-1.2-0.8-2.3-1.9-2.6-3.7c-0.7-3.3-3-5.7-3.8-8.9
					c-0.5-1.9-0.8-4-1.3-6c-0.5-2-1-4-1.5-5.9c-0.4-1.7-1.2-4.3-1.8-5.8c-2.4-6.3-3.5-5.8-3.5-5.8s0.9,1.7,4,17.1
					c0.1,0.6,1.3,7.4,2.1,9.6c0.3,0.8,0.8,2.5,1.2,3.2c1,2.2,3.7,5.5,3.8,8.5c0.1,1.7,0.3,3.2,0.3,4.5c0,0.4,0.2,1.9,0.4,2.6
					c0.7,1.8,5.9,7.7,11.5,7.7v-4.5c-5.5,0-10.8-3.1-10.9-3.4c-0.1-0.1,0.3-2.3,0.7-3.2c0.7-1.8,2.1-3.5,4.5-3.7
					c2.7-0.2,4.3,0.6,5.7,0.6L79.1,66.8z"/>
				<path class="st1" d="M55.1,50.5c-0.2,3.4-5.4,7.9-7,10.9c-0.8,1.4-1.8,3.9-2,5.4c-0.7,4,0.2,6.5,1.2,8.8
					c1.7,4.1-0.2,5.6,1.1,4.8c1.7-1.4,1.4-4.5,1.3-6.5c-0.1-1.6-0.2-3.4,0-5.3c0.5-3.6,2.6-7.4,4.5-10.1
					C56.3,55.3,55.5,52,55.1,50.5"/>
				<path class="st1" d="M56.1,60c0,0,0.6,2.7-1.8,9.5c-6.1,17.9,5.6,19.5,8.9,23.7c0,0,1.3-1.8-4-7.6c-1.9-2.1-3.7-6.8-2.2-13.5
					C59.3,62.4,56.1,60,56.1,60"/>
				<path class="st1" d="M44.5,48.3c-0.3-1.1-0.4-2-0.3-2.8c0.3-4.2,4.1-5.9,5-6.5c0,0,1.7-1.2,1.9-2.4c0,0,1.8,4.4-2.3,6.9
					C46.9,44.9,45.5,46.4,44.5,48.3"/>
				<path class="st1" d="M54.1,44.3c0.2,0.4,1.8,2.7-4.7,8.1C43,57.7,45,61.5,45,61.5s-6.9-3.8,1-10.5c7.9-6.6,6.3-8,6.3-8
					S53.5,43,54.1,44.3"/>
				<path class="st1" d="M62.5,46.3c1.1,0.1,1.8,3.6,4.4,4.4c1.9,0.6,3.9,0.3,4.4,1.4c-0.9,0.5-0.2,2,0.7,1.7
					C72.7,51.8,73.1,44,62.5,46.3z M66,47.9c0.1-0.2,0.2,0,0.5-0.2c0.3-0.3,0.6-0.8,1.1-0.9c0.4-0.1,0.8-0.1,1.2,0.1
					c0.2,0.1,0.1,0.6-0.1,0.8c-0.3,0.3-1.4-0.2-1.4,0.6c0,1.3,1.7,0,2.6,0C70.3,51.3,65.3,50.4,66,47.9z"/>
			</g>
		</g>
	</g>
</g>
</svg>
